<svg id="Layer_1" data-name="Layer 1" xmlns="http://www.w3.org/2000/svg" viewBox="0 0 92.53 122.88"><defs><style>.cls-1{fill-rule:evenodd;}</style></defs><title>entity-location</title><path fill="#fff" class="cls-1" d="M 47.63,115.7 C 53.665858,111.79939 59.168691,107.13022 64,101.81 74.236791,90.669708 81.331878,77.010975 84.56,62.23 87.37,48.56 86.06,35.23 79.81,24.89 77.994796,21.901532 75.762277,19.187489 73.18,16.83 65.62,9.93 57,6.64 48.23,6.56 39.07,6.49 29.77,10 21.55,16.5 c -3.392524,2.680053 -6.309916,5.911835 -8.63,9.56 -5.77,9.09 -7.51,20.37 -5.61,32.18 1.94,12 7.66,24.61 16.77,36 6.682964,8.33756 14.629013,15.57842 23.55,21.46 z m 21.24,-9.46 c -5.65835,6.21634 -12.165884,11.60281 -19.33,16 -1.090812,0.80632 -2.565425,0.85799 -3.71,0.13 -10.23382,-6.45519 -19.324219,-14.56559 -26.9,-24 -9.8,-12.31 -16,-26 -18.1,-39.1 C -1.33,45.89 0.7,33 7.36,22.53 10.078981,18.265666 13.492855,14.486744 17.46,11.35 26.85,3.87 37.6,-0.09 48.29,0 58.6,0.09 68.79,3.92 77.6,12 c 3.049102,2.782484 5.682667,5.988563 7.82,9.52 7.15,11.8 8.71,26.83 5.57,42.05 -3.466275,15.939466 -11.099247,30.674001 -22.12,42.7 z"/></svg>